HIERARCHY
ROOT Hips
{
	OFFSET 0.000000 100.481300 0.000000
	CHANNELS 6 Xposition Yposition Zposition Xrotation Yrotation Zrotation 
	JOINT Spine
	{
		OFFSET -0.279200 12.230698 -2.892100
		CHANNELS 3 Xrotation Yrotation Zrotation
		JOINT Spine1
		{
			OFFSET -0.232667 10.192268 -1.242267
			CHANNELS 3 Xrotation Yrotation Zrotation
			JOINT Spine1_split
			{
				OFFSET -0.232667 10.192268 -1.242267
				CHANNELS 3 Xrotation Yrotation Zrotation
				JOINT Spine2
				{
					OFFSET -0.232667 10.192268 -1.242267
					CHANNELS 3 Xrotation Yrotation Zrotation
					JOINT Neck
					{
						OFFSET -0.418800 17.814194 8.416900
						CHANNELS 3 Xrotation Yrotation Zrotation
						JOINT Head
						{
							OFFSET 0.000000 7.031097 3.806800
							CHANNELS 3 Xrotation Yrotation Zrotation
							JOINT HeadTop_End
							{
								OFFSET 0.000000 24.646606 12.978600
								CHANNELS 3 Xrotation Yrotation Zrotation
								End Site
								{
									OFFSET 0.000000 0.000000 0.000000
								}
							}
						}
					}
					JOINT LeftShoulder
					{
						OFFSET 8.476499 7.247704 -3.868750
						CHANNELS 3 Xrotation Yrotation Zrotation
						JOINT LeftShoulder_split
						{
							OFFSET 8.476499 7.247704 -3.868750
							CHANNELS 3 Xrotation Yrotation Zrotation
							JOINT LeftArm
							{
								OFFSET 9.308998 -2.777710 0.208600
								CHANNELS 3 Xrotation Yrotation Zrotation
								JOINT LeftForeArm
								{
									OFFSET 29.972298 0.000000 0.000000
									CHANNELS 3 Xrotation Yrotation Zrotation
									JOINT LeftHand
									{
										OFFSET 26.026505 0.000000 0.000000
										CHANNELS 3 Xrotation Yrotation Zrotation
										JOINT LeftHandThumb1
										{
											OFFSET 12.240501 -7.147949 9.207150
											CHANNELS 3 Xrotation Yrotation Zrotation
											JOINT LeftHandThumb2
											{
												OFFSET 4.138618 -2.389435 2.389433
												CHANNELS 3 Xrotation Yrotation Zrotation
												JOINT LeftHandThumb3
												{
													OFFSET 2.726913 -1.574387 1.574386
													CHANNELS 3 Xrotation Yrotation Zrotation
													JOINT LeftHandThumb4
													{
														OFFSET 3.941010 -2.275345 2.275342
														CHANNELS 3 Xrotation Yrotation Zrotation
														End Site
														{
															OFFSET 0.000000 0.000000 0.000000
														}
													}
												}
											}
										}
										JOINT LeftHandIndex1
										{
											OFFSET 24.424698 -1.985611 5.953459
											CHANNELS 3 Xrotation Yrotation Zrotation
											JOINT LeftHandIndex2
											{
												OFFSET 6.426697 0.000000 0.000000
												CHANNELS 3 Xrotation Yrotation Zrotation
												JOINT LeftHandIndex3
												{
													OFFSET 5.337898 0.000000 0.000000
													CHANNELS 3 Xrotation Yrotation Zrotation
													JOINT LeftHandIndex4
													{
														OFFSET 4.409401 0.000000 0.000000
														CHANNELS 3 Xrotation Yrotation Zrotation
														End Site
														{
															OFFSET 0.000000 0.000000 0.000000
														}
													}
												}
											}
										}
										JOINT LeftHandMiddle1
										{
											OFFSET 23.810104 0.000000 0.000000
											CHANNELS 3 Xrotation Yrotation Zrotation
											JOINT LeftHandMiddle2
											{
												OFFSET 7.176498 0.000000 0.000000
												CHANNELS 3 Xrotation Yrotation Zrotation
												JOINT LeftHandMiddle3
												{
													OFFSET 6.774902 0.000000 0.000000
													CHANNELS 3 Xrotation Yrotation Zrotation
													JOINT LeftHandMiddle4
													{
														OFFSET 5.403328 0.000000 0.000000
														CHANNELS 3 Xrotation Yrotation Zrotation
														End Site
														{
															OFFSET 0.000000 0.000000 0.000000
														}
													}
												}
											}
										}
										JOINT LeftHandRing1
										{
											OFFSET 22.908401 -0.839279 -6.020567
											CHANNELS 3 Xrotation Yrotation Zrotation
											JOINT LeftHandRing2
											{
												OFFSET 6.337502 0.000000 0.000000
												CHANNELS 3 Xrotation Yrotation Zrotation
												JOINT LeftHandRing3
												{
													OFFSET 5.779297 0.000000 0.000000
													CHANNELS 3 Xrotation Yrotation Zrotation
													JOINT LeftHandRing4
													{
														OFFSET 4.965698 0.000000 0.000000
														CHANNELS 3 Xrotation Yrotation Zrotation
														End Site
														{
															OFFSET 0.000000 0.000000 0.000000
														}
													}
												}
											}
										}
										JOINT LeftHandPinky1
										{
											OFFSET 20.037003 -1.530319 -10.950146
											CHANNELS 3 Xrotation Yrotation Zrotation
											JOINT LeftHandPinky2
											{
												OFFSET 5.254700 0.000000 0.000000
												CHANNELS 3 Xrotation Yrotation Zrotation
												JOINT LeftHandPinky3
												{
													OFFSET 4.810204 0.000000 0.000000
													CHANNELS 3 Xrotation Yrotation Zrotation
													JOINT LeftHandPinky4
													{
														OFFSET 3.647202 0.000000 0.000000
														CHANNELS 3 Xrotation Yrotation Zrotation
														End Site
														{
															OFFSET 0.000000 0.000000 0.000000
														}
													}
												}
											}
										}
									}
								}
							}
						}
					}
					JOINT RightShoulder
					{
						OFFSET -7.570500 7.247704 -3.868750
						CHANNELS 3 Xrotation Yrotation Zrotation
						JOINT RightShoulder_split
						{
							OFFSET -7.570500 7.247704 -3.868750
							CHANNELS 3 Xrotation Yrotation Zrotation
							JOINT RightArm
							{
								OFFSET -9.308998 -2.777710 0.208500
								CHANNELS 3 Xrotation Yrotation Zrotation
								JOINT RightForeArm
								{
									OFFSET -29.972300 0.000000 0.000000
									CHANNELS 3 Xrotation Yrotation Zrotation
									JOINT RightHand
									{
										OFFSET -26.026505 0.000000 0.000000
										CHANNELS 3 Xrotation Yrotation Zrotation
										JOINT RightHandThumb1
										{
											OFFSET -12.240601 -7.148026 9.207092
											CHANNELS 3 Xrotation Yrotation Zrotation
											JOINT RightHandThumb2
											{
												OFFSET -4.138618 -2.389435 2.389433
												CHANNELS 3 Xrotation Yrotation Zrotation
												JOINT RightHandThumb3
												{
													OFFSET -2.726974 -1.574417 1.574421
													CHANNELS 3 Xrotation Yrotation Zrotation
													JOINT RightHandThumb4
													{
														OFFSET -3.941010 -2.275345 2.275343
														CHANNELS 3 Xrotation Yrotation Zrotation
														End Site
														{
															OFFSET 0.000000 0.000000 0.000000
														}
													}
												}
											}
										}
										JOINT RightHandIndex1
										{
											OFFSET -24.424698 -1.985657 5.953444
											CHANNELS 3 Xrotation Yrotation Zrotation
											JOINT RightHandIndex2
											{
												OFFSET -6.426697 0.000000 0.000000
												CHANNELS 3 Xrotation Yrotation Zrotation
												JOINT RightHandIndex3
												{
													OFFSET -5.337898 0.000000 0.000000
													CHANNELS 3 Xrotation Yrotation Zrotation
													JOINT RightHandIndex4
													{
														OFFSET -4.409401 0.000000 0.000000
														CHANNELS 3 Xrotation Yrotation Zrotation
														End Site
														{
															OFFSET 0.000000 0.000000 0.000000
														}
													}
												}
											}
										}
										JOINT RightHandMiddle1
										{
											OFFSET -23.810097 0.000000 0.000000
											CHANNELS 3 Xrotation Yrotation Zrotation
											JOINT RightHandMiddle2
											{
												OFFSET -7.176498 0.000000 0.000000
												CHANNELS 3 Xrotation Yrotation Zrotation
												JOINT RightHandMiddle3
												{
													OFFSET -6.774902 0.000000 0.000000
													CHANNELS 3 Xrotation Yrotation Zrotation
													JOINT RightHandMiddle4
													{
														OFFSET -5.403328 0.000000 0.000000
														CHANNELS 3 Xrotation Yrotation Zrotation
														End Site
														{
															OFFSET 0.000000 0.000000 0.000000
														}
													}
												}
											}
										}
										JOINT RightHandRing1
										{
											OFFSET -22.908302 -0.839325 -6.020576
											CHANNELS 3 Xrotation Yrotation Zrotation
											JOINT RightHandRing2
											{
												OFFSET -6.337502 0.000000 0.000000
												CHANNELS 3 Xrotation Yrotation Zrotation
												JOINT RightHandRing3
												{
													OFFSET -5.779297 0.000000 0.000000
													CHANNELS 3 Xrotation Yrotation Zrotation
													JOINT RightHandRing4
													{
														OFFSET -4.965698 0.000000 0.000000
														CHANNELS 3 Xrotation Yrotation Zrotation
														End Site
														{
															OFFSET 0.000000 0.000000 0.000000
														}
													}
												}
											}
										}
										JOINT RightHandPinky1
										{
											OFFSET -20.037003 -1.530334 -10.950259
											CHANNELS 3 Xrotation Yrotation Zrotation
											JOINT RightHandPinky2
											{
												OFFSET -5.254700 0.000000 0.000000
												CHANNELS 3 Xrotation Yrotation Zrotation
												JOINT RightHandPinky3
												{
													OFFSET -4.810204 0.000000 0.000000
													CHANNELS 3 Xrotation Yrotation Zrotation
													JOINT RightHandPinky4
													{
														OFFSET -3.647202 0.000000 0.000000
														CHANNELS 3 Xrotation Yrotation Zrotation
														End Site
														{
															OFFSET 0.000000 0.000000 0.000000
														}
													}
												}
											}
										}
									}
								}
							}
						}
					}
				}
			}
		}
	}
	JOINT LeftUpLeg
	{
		OFFSET 15.427100 -6.655098 0.678600
		CHANNELS 3 Xrotation Yrotation Zrotation
		JOINT LeftLeg
		{
			OFFSET 4.081073 -39.591068 13.024000
			CHANNELS 3 Xrotation Yrotation Zrotation
			JOINT LeftFoot
			{
				OFFSET -4.081074 -37.707932 -15.979700
				CHANNELS 3 Xrotation Yrotation Zrotation
				JOINT LeftToeBase
				{
					OFFSET 5.346399 -15.068900 20.645000
					CHANNELS 3 Xrotation Yrotation Zrotation
					JOINT LeftToe_End
					{
						OFFSET 2.754700 0.931300 11.300900
						CHANNELS 3 Xrotation Yrotation Zrotation
						End Site
						{
							OFFSET 0.000000 0.000000 0.000000
						}
					}
				}
			}
		}
	}
	JOINT RightUpLeg
	{
		OFFSET -15.569500 -6.655098 0.678600
		CHANNELS 3 Xrotation Yrotation Zrotation
		JOINT RightLeg
		{
			OFFSET -4.081825 -39.591045 13.023800
			CHANNELS 3 Xrotation Yrotation Zrotation
			JOINT RightFoot
			{
				OFFSET 4.081824 -37.707954 -15.979600
				CHANNELS 3 Xrotation Yrotation Zrotation
				JOINT RightToeBase
				{
					OFFSET -5.346400 -15.068900 20.645000
					CHANNELS 3 Xrotation Yrotation Zrotation
					JOINT RightToe_End
					{
						OFFSET -2.754700 0.931300 11.300900
						CHANNELS 3 Xrotation Yrotation Zrotation
						End Site
						{
							OFFSET 0.000000 0.000000 0.000000
						}
					}
				}
			}
		}
	}
}
MOTION
Frames: 4
Frame Time: 0.016667
-0.952025 74.452759 -0.426929 8.150123 -11.224624 3.537289 8.220930 1.927048 -1.954645 6.501514 1.669132 -0.600553 0.000000 0.000000 0.000000 6.503129 1.665275 -0.587176 -1.740218 -0.081393 0.346733 -18.113896 -0.499812 1.304437 0.000000 0.000000 0.000000 2.609665 -14.773706 -9.661126 0.000000 0.000000 0.000000 -25.061853 -6.032397 -45.944985 0.000014 -124.725743 0.000035 -67.570331 18.900148 22.799788 39.578709 -17.197363 -21.086408 11.235997 23.988454 2.901714 3.118800 9.520993 4.222312 0.000003 -0.000003 -0.000002 3.600015 6.051839 -61.463472 4.128149 6.308900 -66.366196 1.118813 3.767450 -33.069310 0.000002 -0.000001 0.000001 2.451411 5.271005 -49.859916 3.793785 6.152670 -63.285951 1.517076 4.316430 -38.714824 0.000001 -0.000001 -0.000000 2.452896 5.272235 -49.876053 3.792037 6.151823 -63.269777 1.517080 4.316424 -38.714834 0.000002 0.000000 -0.000000 7.187302 7.991497 -61.391776 4.144321 2.228357 -66.583204 1.118819 3.767469 -33.069314 0.000001 -0.000000 -0.000002 1.602759 8.845881 9.965477 0.000000 0.000000 0.000000 3.934442 4.254983 41.144394 0.001610 89.362070 -0.001370 32.702027 19.603391 -22.590415 29.376435 16.962640 20.541345 9.559548 -25.704466 -5.659314 1.488509 -8.233522 -5.339834 -0.000001 0.000001 0.000000 2.155497 -5.036553 46.317159 4.033406 -6.309987 65.142909 1.089703 -3.742276 32.460242 0.000002 -0.000001 0.000001 1.448254 -4.252502 37.599696 3.476835 -6.022574 59.964785 1.448460 -4.252778 37.602893 -0.000000 -0.000001 -0.000001 1.448254 -4.252499 37.599696 3.476828 -6.022577 59.964799 1.448468 -4.252777 37.602903 -0.000001 0.000000 -0.000000 2.155497 -5.036553 46.317159 4.033412 -6.309997 65.142916 1.089703 -3.742271 32.460242 0.000002 0.000001 0.000002 -54.264415 1.104435 26.289854 46.890304 0.238566 4.715615 3.792240 1.618888 -23.587013 0.000004 -0.000003 -0.000003 0.000000 0.000001 0.000000 -29.394129 2.176384 -35.577438 49.045311 3.622804 0.556779 -20.512120 -8.557720 28.273807 -0.002726 -0.000012 -0.000005 -0.000000 0.000000 0.000000 
-0.879907 74.539352 -0.367127 8.176090 -11.206076 3.460178 8.197496 1.920503 -1.971550 6.485269 1.665930 -0.610207 0.000000 0.000000 0.000000 6.486866 1.662227 -0.596724 -1.712111 -0.092270 0.384983 -18.110411 -0.529394 1.344542 -0.000001 -0.000000 -0.000000 2.607224 -14.764980 -9.614776 0.000000 0.000000 0.000000 -25.050248 -6.005738 -46.040885 -0.000002 -124.877018 0.000007 -67.329669 18.877832 22.729331 39.578706 -17.197366 -21.086411 11.235997 23.988451 2.901703 3.118801 9.520989 4.222312 -0.000001 -0.000002 -0.000002 3.600017 6.051841 -61.463472 4.128147 6.308899 -66.366196 1.118811 3.767450 -33.069310 0.000003 0.000000 0.000000 2.451410 5.271008 -49.859923 3.793787 6.152670 -63.285951 1.517074 4.316431 -38.714817 -0.000004 0.000002 0.000000 2.452896 5.272236 -49.876049 3.792037 6.151821 -63.269777 1.517080 4.316425 -38.714830 -0.000001 -0.000001 -0.000001 7.187302 7.991501 -61.391776 4.144319 2.228361 -66.583204 1.118822 3.767467 -33.069310 0.000002 0.000001 -0.000001 1.606123 8.884877 9.946591 0.000000 0.000000 0.000000 4.076249 4.257997 41.187653 0.049530 89.427161 -0.049664 32.911840 19.509616 -22.720491 29.376435 16.962640 20.541343 9.559553 -25.704469 -5.659312 1.488509 -8.233522 -5.339834 -0.000001 0.000000 -0.000001 2.155495 -5.036552 46.317166 4.033406 -6.309985 65.142902 1.089707 -3.742276 32.460242 0.000000 -0.000001 -0.000001 1.448251 -4.252503 37.599700 3.476831 -6.022576 59.964785 1.448461 -4.252780 37.602896 -0.000001 0.000001 0.000001 1.448254 -4.252501 37.599696 3.476830 -6.022576 59.964799 1.448468 -4.252777 37.602900 -0.000002 0.000000 0.000002 2.155495 -5.036552 46.317166 4.033410 -6.309993 65.142909 1.089703 -3.742271 32.460242 0.000002 0.000001 0.000002 -54.281791 1.164528 26.241032 46.882459 0.265313 4.800306 3.741836 1.617250 -23.529168 0.000123 0.000003 -0.000007 0.000000 0.000000 -0.000000 -29.255654 2.095151 -35.544513 48.785869 3.564933 0.590967 -20.365652 -8.540573 28.341061 -0.028714 0.000021 -0.000001 -0.000000 -0.000001 0.000000 
-0.811695 74.594368 -0.312819 8.234452 -11.211113 3.376117 8.174527 1.918368 -1.994096 6.469511 1.666602 -0.622083 0.000000 0.000000 0.000000 6.471178 1.662708 -0.608366 -1.660631 -0.094396 0.408573 -18.088767 -0.528534 1.378604 -0.000000 0.000000 -0.000000 2.606492 -14.776933 -9.549423 0.000000 0.000000 0.000000 -25.079264 -5.936103 -46.237464 0.000026 -124.947601 0.000020 -67.140398 18.934350 22.684781 39.578713 -17.197368 -21.086408 11.235996 23.988451 2.901713 3.118799 9.520993 4.222314 -0.000002 0.000000 -0.000000 3.600021 6.051843 -61.463479 4.128147 6.308899 -66.366196 1.118815 3.767450 -33.069310 0.000001 -0.000000 0.000001 2.451413 5.271008 -49.859916 3.793784 6.152670 -63.285951 1.517074 4.316433 -38.714824 -0.000001 -0.000001 0.000001 2.452897 5.272237 -49.876053 3.792037 6.151819 -63.269784 1.517078 4.316425 -38.714834 -0.000001 -0.000001 -0.000000 7.187304 7.991501 -61.391776 4.144318 2.228360 -66.583204 1.118822 3.767468 -33.069317 -0.000001 0.000000 -0.000001 1.612931 8.972300 9.892408 0.000000 0.000000 0.000000 4.280584 4.276496 41.166595 -0.012183 89.494063 0.011963 33.037523 19.369488 -22.853907 29.376435 16.962638 20.541341 9.559550 -25.704466 -5.659312 1.488508 -8.233522 -5.339831 -0.000003 0.000000 -0.000000 2.155493 -5.036554 46.317159 4.033406 -6.309984 65.142909 1.089703 -3.742279 32.460238 -0.000001 0.000000 0.000001 1.448250 -4.252504 37.599693 3.476834 -6.022577 59.964785 1.448458 -4.252778 37.602896 0.000000 -0.000002 -0.000001 1.448255 -4.252502 37.599696 3.476830 -6.022577 59.964799 1.448467 -4.252775 37.602900 0.000002 0.000001 0.000000 2.155493 -5.036554 46.317155 4.033411 -6.309995 65.142909 1.089701 -3.742271 32.460242 0.000002 0.000001 0.000003 -54.333721 1.149512 26.249057 46.924981 0.320638 4.832533 3.687012 1.621410 -23.487644 0.000091 0.000000 0.000004 0.000000 0.000000 0.000000 -29.235269 1.988262 -35.484035 48.584594 3.575652 0.581168 -20.229542 -8.518345 28.393216 -0.059027 -0.000009 -0.000000 -0.000000 0.000001 0.000000 
-0.748304 74.623222 -0.262963 8.282301 -11.241773 3.320442 8.152791 1.920214 -2.017170 6.454650 1.669949 -0.635075 0.000000 0.000000 0.000000 6.456425 1.665762 -0.621081 -1.598636 -0.092580 0.422501 -18.056068 -0.517753 1.411532 0.000000 0.000000 -0.000000 2.606931 -14.801042 -9.475212 0.000000 0.000000 0.000000 -25.130225 -5.847835 -46.486438 -0.000025 -124.971247 -0.000025 -66.982019 19.038363 22.658756 39.578713 -17.197366 -21.086413 11.235997 23.988451 2.901710 3.118803 9.520991 4.222312 0.000001 -0.000001 -0.000000 3.600020 6.051843 -61.463472 4.128145 6.308900 -66.366196 1.118813 3.767449 -33.069310 0.000002 -0.000001 -0.000000 2.451415 5.271007 -49.859916 3.793787 6.152671 -63.285951 1.517074 4.316433 -38.714817 -0.000000 0.000000 -0.000000 2.452902 5.272238 -49.876056 3.792035 6.151825 -63.269777 1.517080 4.316423 -38.714834 -0.000000 -0.000000 -0.000001 7.187303 7.991501 -61.391776 4.144319 2.228359 -66.583204 1.118820 3.767470 -33.069314 0.000002 0.000001 -0.000001 1.621829 9.085367 9.820733 0.000000 0.000000 0.000000 4.518117 4.299209 41.105212 0.025418 89.563130 -0.025749 33.107211 19.210745 -22.984644 29.376435 16.962640 20.541341 9.559549 -25.704468 -5.659309 1.488506 -8.233523 -5.339830 -0.000003 -0.000000 -0.000002 2.155492 -5.036554 46.317159 4.033403 -6.309981 65.142902 1.089706 -3.742273 32.460242 -0.000001 0.000000 0.000001 1.448248 -4.252503 37.599700 3.476836 -6.022577 59.964778 1.448460 -4.252778 37.602893 -0.000002 0.000000 -0.000000 1.448253 -4.252502 37.599696 3.476832 -6.022574 59.964792 1.448469 -4.252777 37.602896 -0.000001 0.000002 0.000000 2.155492 -5.036554 46.317166 4.033411 -6.309993 65.142909 1.089704 -3.742271 32.460242 0.000001 0.000001 -0.000000 -54.328581 1.067096 26.284450 46.985247 0.398437 4.783392 3.611890 1.635581 -23.470191 0.000053 0.000007 0.000001 0.000000 -0.000000 -0.000000 -29.236181 1.935243 -35.447678 48.440849 3.606257 0.570275 -20.117868 -8.502525 28.443752 -0.085864 -0.000000 -0.000004 -0.000000 -0.000000 0.000000 
